# Blender 5.0.0
# www.blender.org
o ground
v -1.500000 -0.500000 0.250000
v -1.500000 -0.500000 -0.250000
v 1.500000 -0.500000 -0.250000
v 1.500000 -0.500000 0.250000
v 1.250000 -0.250000 -0.250000
v -1.250000 -0.250000 -0.250000
v 1.500000 0.250000 0.250000
v 1.500000 0.250000 -0.250000
v -1.500000 0.250000 0.250000
v -1.500000 0.250000 -0.250000
v -1.250000 0.250000 -0.250000
v -1.250000 0.250000 0.250000
v -1.250000 -0.250000 0.250000
v 1.250000 0.250000 -0.250000
v 1.250000 0.250000 0.250000
v 1.250000 -0.250000 0.250000
vn -0.0000 -1.0000 -0.0000
vn -0.0000 -0.0000 -1.0000
vn 1.0000 -0.0000 -0.0000
vn -1.0000 -0.0000 -0.0000
vn -0.0000 1.0000 -0.0000
vn -0.0000 -0.0000 1.0000
vt 1.500000 3.500000
vt 2.500000 -2.500000
vt 2.500000 3.500000
vt 1.500100 -2.500000
vt 1.000000 3.000000
vt 1.000000 -2.000000
vt -0.500000 -2.500000
vt 1.000100 -3.500000
vt 1.000000 -2.500000
vt 1.000000 3.500000
vt -0.500000 4.500000
vt -0.500000 3.500000
vt 0.000000 3.500000
vt 0.000000 3.000000
vt 2.000000 3.500000
vt 1.000000 2.000000
vt 2.000100 -2.500000
vt 2.000100 -2.000000
vt 0.000000 -1.000000
vt 1.000000 -1.000000
vt 0.000000 -2.000000
vt 0.000000 -2.500000
vt 1.500000 -2.500000
vt -0.500000 -3.500000
vt 1.000000 4.500000
vt 2.000000 3.000000
vt 0.000000 2.000000
s 1
f 2/1/1 4/2/1 1/3/1
f 3/4/2 6/5/2 5/6/2
f 4/7/3 8/8/3 7/9/3
f 9/10/4 2/11/4 1/12/4
f 6/5/2 10/13/2 11/14/2
f 12/5/5 10/15/5 9/10/5
f 13/14/3 11/16/3 12/5/3
f 15/6/5 8/17/5 14/18/5
f 5/19/4 15/6/4 14/20/4
f 13/14/6 9/10/6 1/12/6
f 7/9/6 16/21/6 4/7/6
f 5/6/2 8/22/2 3/4/2
f 5/6/5 13/14/5 16/21/5
f 4/7/6 13/14/6 1/12/6
f 2/1/1 3/23/1 4/2/1
f 3/4/2 2/1/2 6/5/2
f 4/7/3 3/24/3 8/8/3
f 9/10/4 10/25/4 2/11/4
f 6/5/2 2/1/2 10/13/2
f 12/5/5 11/26/5 10/15/5
f 13/14/3 6/27/3 11/16/3
f 15/6/5 7/9/5 8/17/5
f 5/19/4 16/21/4 15/6/4
f 13/14/6 12/5/6 9/10/6
f 7/9/6 15/6/6 16/21/6
f 5/6/2 14/21/2 8/22/2
f 5/6/5 6/5/5 13/14/5
f 4/7/6 16/21/6 13/14/6