# Blender 5.0.1
# www.blender.org
o cube
v -0.250000 0.250000 -0.250000
v -0.250000 0.250000 0.250000
v 0.250000 0.250000 0.250000
v 0.250000 0.250000 -0.250000
v -0.250000 -0.250000 0.250000
v 0.250000 -0.250000 0.250000
v -0.250000 -0.250000 -0.250000
v 0.250000 -0.250000 -0.250000
vn -0.0000 1.0000 -0.0000
vn -0.0000 -0.0000 1.0000
vn -1.0000 -0.0000 -0.0000
vn -0.0000 -1.0000 -0.0000
vn 1.0000 -0.0000 -0.0000
vn -0.0000 -0.0000 -1.0000
vt 1.000000 1.000000
vt 0.000000 0.000000
vt 1.000000 0.000000
vt 0.000000 1.000000
s 1
f 2/1/1 4/2/1 1/3/1
f 2/1/2 6/2/2 3/3/2
f 1/1/3 5/2/3 2/3/3
f 6/1/4 7/2/4 8/3/4
f 3/1/5 8/2/5 4/3/5
f 4/1/6 7/2/6 1/3/6
f 2/1/1 3/4/1 4/2/1
f 2/1/2 5/4/2 6/2/2
f 1/1/3 7/4/3 5/2/3
f 6/1/4 5/4/4 7/2/4
f 3/1/5 6/4/5 8/2/5
f 4/1/6 8/4/6 7/2/6
o ground
v -1.500000 -0.500000 0.250000
v -1.500000 -0.500000 -2.250000
v 1.500000 -0.500000 -2.250000
v 1.500000 -0.500000 0.250000
v 1.250000 -0.250000 -2.250000
v -1.250000 -0.250000 -2.250000
v 1.500000 0.250000 0.250000
v 1.500000 0.250000 -2.250000
v -1.500000 0.250000 0.250000
v -1.500000 0.250000 -2.250000
v -1.250000 0.250000 -2.250000
v -1.250000 0.250000 0.250000
v -1.250000 -0.250000 0.250000
v 1.250000 0.250000 -2.250000
v 1.250000 0.250000 0.250000
v 1.250000 -0.250000 0.250000
vn -0.0000 -1.0000 -0.0000
vn -0.0000 -0.0000 -1.0000
vn 1.0000 -0.0000 -0.0000
vn -1.0000 -0.0000 -0.0000
vn -0.0000 1.0000 -0.0000
vn -0.0000 -0.0000 1.0000
vt 1.500000 3.500000
vt 2.500000 -2.500000
vt 2.500000 3.500000
vt 1.500100 -2.500000
vt 1.000000 3.000000
vt 1.000000 -2.000000
vt -0.500000 -2.500000
vt 1.000100 -3.500000
vt 1.000000 -2.500000
vt 1.000000 3.500000
vt -0.500000 4.500000
vt -0.500000 3.500000
vt 0.000000 3.500000
vt 0.000000 3.000000
vt 2.000000 3.500000
vt 0.000000 2.000000
vt 1.000000 2.000000
vt 2.000100 -2.500000
vt 2.000100 -2.000000
vt 0.000000 -1.000000
vt 1.000000 -1.000000
vt 0.000000 -2.000000
vt 0.000000 -2.500000
vt 1.500000 -2.500000
vt -0.500000 -3.500000
vt 1.000000 4.500000
vt 2.000000 3.000000
s 1
f 10/5/7 12/6/7 9/7/7
f 11/8/8 14/9/8 13/10/8
f 12/11/9 16/12/9 15/13/9
f 17/14/10 10/15/10 9/16/10
f 14/9/8 18/17/8 19/18/8
f 20/9/11 18/19/11 17/14/11
f 20/9/9 14/20/9 19/21/9
f 23/10/11 16/22/11 22/23/11
f 13/24/10 23/10/10 22/25/10
f 21/18/12 17/14/12 9/16/12
f 15/13/12 24/26/12 12/11/12
f 13/10/8 16/27/8 11/8/8
f 13/10/11 21/18/11 24/26/11
f 12/11/12 21/18/12 9/16/12
f 10/5/7 11/28/7 12/6/7
f 11/8/8 10/5/8 14/9/8
f 12/11/9 11/29/9 16/12/9
f 17/14/10 18/30/10 10/15/10
f 14/9/8 10/5/8 18/17/8
f 20/9/11 19/31/11 18/19/11
f 20/9/9 21/18/9 14/20/9
f 23/10/11 15/13/11 16/22/11
f 13/24/10 24/26/10 23/10/10
f 21/18/12 20/9/12 17/14/12
f 15/13/12 23/10/12 24/26/12
f 13/10/8 22/26/8 16/27/8
f 13/10/11 14/9/11 21/18/11
f 12/11/12 24/26/12 21/18/12